<svg width="130" height="52" viewBox="0 0 130 52" fill="none" xmlns="http://www.w3.org/2000/svg">
<path d="M62.2786 6.46804C62.2786 5.87196 62.4734 5.37905 62.8746 4.9893C63.2758 4.59956 63.8261 4.40469 64.5139 4.40469C65.1902 4.40469 65.7404 4.59956 66.1416 4.9893C66.5428 5.37905 66.7491 5.87196 66.7491 6.46804C66.7491 7.07558 66.5428 7.56849 66.1301 7.95823C65.7175 8.34797 65.1787 8.54284 64.5024 8.54284C63.8261 8.54284 63.2873 8.34797 62.8746 7.95823C62.4849 7.57995 62.2786 7.07558 62.2786 6.46804ZM66.5199 25.2788H62.5193V10.3311H66.5199V25.2788Z" fill="white"/>
<path d="M68.801 17.7018C68.801 15.4092 69.3513 13.5637 70.4402 12.1652C71.5292 10.7667 72.9965 10.0674 74.8535 10.0674C76.4927 10.0674 77.7651 10.6291 78.6821 11.7525L78.8426 10.3426H82.4649V24.786C82.4649 26.0927 82.1669 27.2276 81.5708 28.2019C80.9748 29.1648 80.138 29.9099 79.0604 30.4143C77.9829 30.9187 76.722 31.1709 75.2776 31.1709C74.1772 31.1709 73.1111 30.9531 72.0794 30.5175C71.0363 30.0819 70.2568 29.5202 69.7181 28.8209L71.4834 26.3908C72.4807 27.5027 73.6843 28.0644 75.1057 28.0644C76.1603 28.0644 76.9856 27.7778 77.5817 27.2161C78.1663 26.6544 78.4643 25.852 78.4643 24.8089V24.0065C77.5473 25.0496 76.3322 25.5654 74.8306 25.5654C73.0309 25.5654 71.5865 24.8662 70.4746 23.4562C69.3627 22.0578 68.8125 20.1893 68.8125 17.8738V17.7018H68.801ZM72.7902 17.9884C72.7902 19.341 73.0653 20.4071 73.604 21.1751C74.1428 21.9431 74.8879 22.3329 75.8393 22.3329C77.0544 22.3329 77.9256 21.8744 78.4529 20.9688V14.6756C77.9141 13.7585 77.0544 13.3115 75.8737 13.3115C74.9108 13.3115 74.1657 13.7012 73.6155 14.4922C73.0653 15.2602 72.7902 16.4409 72.7902 17.9884Z" fill="white"/>
<path d="M88.7697 10.3312L88.8957 12.0621C89.9618 10.7324 91.3947 10.0561 93.1944 10.0561C94.7763 10.0561 95.957 10.526 96.725 11.4545C97.493 12.383 97.8942 13.7701 97.9171 15.6271V25.2789H93.928V15.7188C93.928 14.8705 93.7446 14.263 93.3778 13.8732C93.011 13.495 92.392 13.3001 91.5437 13.3001C90.4203 13.3001 89.5835 13.7815 89.0218 14.733V25.2675H85.0327V10.3312H88.7697Z" fill="white"/>
<path d="M100.485 6.46801C100.485 5.87193 100.68 5.37902 101.081 4.98928C101.482 4.59954 102.032 4.40467 102.72 4.40467C103.396 4.40467 103.947 4.59954 104.348 4.98928C104.749 5.37902 104.955 5.87193 104.955 6.46801C104.955 7.07555 104.749 7.56846 104.336 7.9582C103.924 8.34795 103.385 8.54281 102.709 8.54281C102.032 8.54281 101.494 8.34795 101.081 7.9582C100.691 7.57992 100.485 7.07555 100.485 6.46801ZM104.726 25.2788H100.726V10.331H104.726V25.2788Z" fill="white"/>
<path d="M112.372 6.66293V10.3311H114.928V13.2542H112.372V20.7166C112.372 21.2668 112.475 21.668 112.693 21.9087C112.899 22.1495 113.312 22.2641 113.908 22.2641C114.355 22.2641 114.745 22.2297 115.077 22.1724V25.1986C114.298 25.4394 113.484 25.554 112.659 25.554C109.862 25.554 108.429 24.144 108.383 21.3127V13.2656H106.205V10.3426H108.383V6.6744H112.372V6.66293Z" fill="white"/>
<path d="M123.594 25.554C121.405 25.554 119.617 24.8777 118.241 23.5365C116.866 22.1953 116.178 20.4071 116.178 18.1604V17.7706C116.178 16.269 116.464 14.9278 117.049 13.7471C117.634 12.5664 118.448 11.6494 119.514 11.0074C120.58 10.3655 121.795 10.0445 123.147 10.0445C125.188 10.0445 126.804 10.6865 127.973 11.9818C129.143 13.2657 129.739 15.0997 129.739 17.4611V19.0889H120.224C120.35 20.0632 120.74 20.8427 121.394 21.4388C122.047 22.0234 122.861 22.3214 123.858 22.3214C125.394 22.3214 126.598 21.7597 127.457 20.6478L129.418 22.8487C128.822 23.697 128.008 24.3619 126.987 24.8318C125.979 25.3133 124.844 25.554 123.594 25.554ZM123.147 13.2771C122.356 13.2771 121.714 13.5408 121.222 14.0795C120.729 14.6183 120.419 15.3863 120.27 16.3836H125.818V16.0626C125.795 15.18 125.566 14.4922 125.096 13.9993C124.638 13.5178 123.984 13.2771 123.147 13.2771Z" fill="white"/>
<path opacity="0.5" d="M52.0157 0.35129L39.286 47.8829C39.2212 48.0986 38.9623 48.1634 38.8113 48.0123L30.2888 39.4899L36.6753 15.6701C36.74 15.4544 36.5458 15.2602 36.3301 15.3249L12.5103 21.7114L4.03104 13.2321C3.88001 13.081 3.94474 12.8221 4.1605 12.7574L51.6705 0.00607603C51.8863 -0.0370757 52.0804 0.157107 52.0157 0.35129Z" fill="#00B37E"/>
<path opacity="0.5" d="M30.2885 39.49L27.009 51.7882C26.9442 52.004 26.6853 52.0687 26.5343 51.9177L0.0823113 25.4873C-0.0687196 25.3362 -0.00399244 25.0773 0.211766 25.0126L12.51 21.7115L30.2885 39.49Z" fill="#00B37E"/>
<path d="M36.6752 15.6699L30.2887 39.4897L12.5103 21.7112L36.33 15.3247C36.5457 15.26 36.7399 15.4542 36.6752 15.6699Z" fill="#00B37E"/>
<path d="M65.2578 48H63.8125V38.6562C63.8125 38.0469 63.9219 37.5339 64.1406 37.1172C64.3646 36.6953 64.6849 36.3776 65.1016 36.1641C65.5182 35.9453 66.013 35.8359 66.5859 35.8359C66.7526 35.8359 66.9193 35.8464 67.0859 35.8672C67.2578 35.888 67.4245 35.9193 67.5859 35.9609L67.5078 37.1406C67.3984 37.1146 67.2734 37.0964 67.1328 37.0859C66.9974 37.0755 66.862 37.0703 66.7266 37.0703C66.4193 37.0703 66.1536 37.1328 65.9297 37.2578C65.7109 37.3776 65.5443 37.5547 65.4297 37.7891C65.3151 38.0234 65.2578 38.3125 65.2578 38.6562V48ZM67.0547 39.5469V40.6562H62.4766V39.5469H67.0547ZM71.8244 48.1562C71.2358 48.1562 70.702 48.0573 70.2228 47.8594C69.7489 47.6562 69.34 47.3724 68.9963 47.0078C68.6577 46.6432 68.3973 46.2109 68.215 45.7109C68.0327 45.2109 67.9416 44.6641 67.9416 44.0703V43.7422C67.9416 43.0547 68.0431 42.4427 68.2463 41.9062C68.4494 41.3646 68.7254 40.9062 69.0744 40.5312C69.4233 40.1562 69.8192 39.8724 70.2619 39.6797C70.7046 39.487 71.1629 39.3906 71.6369 39.3906C72.241 39.3906 72.7619 39.4948 73.1994 39.7031C73.6421 39.9115 74.0041 40.2031 74.2853 40.5781C74.5666 40.9479 74.7749 41.3854 74.9103 41.8906C75.0457 42.3906 75.1134 42.9375 75.1134 43.5312V44.1797H68.8009V43H73.6681V42.8906C73.6473 42.5156 73.5692 42.151 73.4338 41.7969C73.3035 41.4427 73.0952 41.151 72.8088 40.9219C72.5223 40.6927 72.1317 40.5781 71.6369 40.5781C71.3088 40.5781 71.0067 40.6484 70.7306 40.7891C70.4546 40.9245 70.2176 41.1276 70.0197 41.3984C69.8218 41.6693 69.6681 42 69.5588 42.3906C69.4494 42.7812 69.3947 43.2318 69.3947 43.7422V44.0703C69.3947 44.4714 69.4494 44.849 69.5588 45.2031C69.6733 45.5521 69.8374 45.8594 70.0509 46.125C70.2697 46.3906 70.5327 46.599 70.84 46.75C71.1525 46.901 71.5067 46.9766 71.9025 46.9766C72.4129 46.9766 72.8452 46.8724 73.1994 46.6641C73.5535 46.4557 73.8634 46.1771 74.1291 45.8281L75.0041 46.5234C74.8218 46.7995 74.59 47.0625 74.3088 47.3125C74.0275 47.5625 73.6811 47.7656 73.2697 47.9219C72.8634 48.0781 72.3817 48.1562 71.8244 48.1562ZM80.1488 48.1562C79.5602 48.1562 79.0264 48.0573 78.5472 47.8594C78.0732 47.6562 77.6644 47.3724 77.3206 47.0078C76.9821 46.6432 76.7217 46.2109 76.5394 45.7109C76.3571 45.2109 76.2659 44.6641 76.2659 44.0703V43.7422C76.2659 43.0547 76.3675 42.4427 76.5706 41.9062C76.7738 41.3646 77.0498 40.9062 77.3988 40.5312C77.7477 40.1562 78.1435 39.8724 78.5863 39.6797C79.029 39.487 79.4873 39.3906 79.9613 39.3906C80.5654 39.3906 81.0863 39.4948 81.5238 39.7031C81.9665 39.9115 82.3284 40.2031 82.6097 40.5781C82.8909 40.9479 83.0993 41.3854 83.2347 41.8906C83.3701 42.3906 83.4378 42.9375 83.4378 43.5312V44.1797H77.1253V43H81.9925V42.8906C81.9717 42.5156 81.8935 42.151 81.7581 41.7969C81.6279 41.4427 81.4196 41.151 81.1331 40.9219C80.8467 40.6927 80.456 40.5781 79.9613 40.5781C79.6331 40.5781 79.331 40.6484 79.055 40.7891C78.779 40.9245 78.542 41.1276 78.3441 41.3984C78.1461 41.6693 77.9925 42 77.8831 42.3906C77.7738 42.7812 77.7191 43.2318 77.7191 43.7422V44.0703C77.7191 44.4714 77.7738 44.849 77.8831 45.2031C77.9977 45.5521 78.1618 45.8594 78.3753 46.125C78.5941 46.3906 78.8571 46.599 79.1644 46.75C79.4769 46.901 79.831 46.9766 80.2269 46.9766C80.7373 46.9766 81.1696 46.8724 81.5238 46.6641C81.8779 46.4557 82.1878 46.1771 82.4534 45.8281L83.3284 46.5234C83.1461 46.7995 82.9144 47.0625 82.6331 47.3125C82.3519 47.5625 82.0055 47.7656 81.5941 47.9219C81.1878 48.0781 80.706 48.1562 80.1488 48.1562ZM90.2934 46.3594V36H91.7466V48H90.4184L90.2934 46.3594ZM84.6059 43.8672V43.7031C84.6059 43.0573 84.6841 42.4714 84.8403 41.9453C85.0018 41.4141 85.2283 40.9583 85.52 40.5781C85.8169 40.1979 86.1684 39.9062 86.5747 39.7031C86.9861 39.4948 87.4445 39.3906 87.9497 39.3906C88.4809 39.3906 88.9445 39.4844 89.3403 39.6719C89.7414 39.8542 90.0799 40.1224 90.3559 40.4766C90.6372 40.8255 90.8585 41.2474 91.02 41.7422C91.1815 42.237 91.2934 42.7969 91.3559 43.4219V44.1406C91.2986 44.7604 91.1867 45.3177 91.02 45.8125C90.8585 46.3073 90.6372 46.7292 90.3559 47.0781C90.0799 47.4271 89.7414 47.6953 89.3403 47.8828C88.9393 48.0651 88.4705 48.1562 87.9341 48.1562C87.4393 48.1562 86.9861 48.0495 86.5747 47.8359C86.1684 47.6224 85.8169 47.3229 85.52 46.9375C85.2283 46.5521 85.0018 46.099 84.8403 45.5781C84.6841 45.0521 84.6059 44.4818 84.6059 43.8672ZM86.0591 43.7031V43.8672C86.0591 44.2891 86.1007 44.6849 86.1841 45.0547C86.2726 45.4245 86.408 45.75 86.5903 46.0312C86.7726 46.3125 87.0044 46.5339 87.2856 46.6953C87.5669 46.8516 87.9028 46.9297 88.2934 46.9297C88.7726 46.9297 89.1658 46.8281 89.4731 46.625C89.7856 46.4219 90.0356 46.1536 90.2231 45.8203C90.4106 45.487 90.5565 45.125 90.6606 44.7344V42.8516C90.5981 42.5651 90.507 42.2891 90.3872 42.0234C90.2726 41.7526 90.1216 41.513 89.9341 41.3047C89.7518 41.0911 89.5252 40.9219 89.2544 40.7969C88.9888 40.6719 88.6736 40.6094 88.3091 40.6094C87.9132 40.6094 87.5721 40.6927 87.2856 40.8594C87.0044 41.0208 86.7726 41.2448 86.5903 41.5312C86.408 41.8125 86.2726 42.1406 86.1841 42.5156C86.1007 42.8854 86.0591 43.2812 86.0591 43.7031Z" fill="white"/>
</svg>
